<?xml version="1.0" encoding="utf-8"?>
<!-- Generator: Adobe Illustrator 26.5.0, SVG Export Plug-In . SVG Version: 6.00 Build 0)  -->
<svg version="1.1" id="_Слой_2" xmlns="http://www.w3.org/2000/svg" xmlns:xlink="http://www.w3.org/1999/xlink" x="0px"
	 y="0px" viewBox="0 0 81.2 75" style="enable-background:new 0 0 81.2 75;" xml:space="preserve">
<style type="text/css">
	.st0{fill:#FFFFFF;}
</style>
<g id="_Слой_1-2">
	<g>
		<path class="st0" d="M19.7,18h55.4c0.8,0,1.7,0,2.5,0c2.8,0.1,4.1,1.4,3.3,4c-1.3,3.9-2,7.8-3.1,11.7c-1.3,4.5-2.7,8.9-3.8,13.4
			c-0.6,2.7-1.5,5.3-3.2,7.1c-1.5,1.6-3.7,2.8-6.2,2.8c-11.2,0-22.3,0-33.5,0c-3.4,0-7.3-2.8-8.2-5.9c-1.3-4.3-2.8-8.5-4-12.8
			c-1.2-4.3-2.6-8.6-3.9-12.9c-1.6-5.8-3.3-11.6-5-17.4C9.6,6.2,9.3,5.9,7.7,6C5.9,6.1,4.1,6.1,2.2,6C0.7,5.9-0.1,4.8,0,2.9
			C0.1,1,0.8,0.1,2.5,0C4.3,0,6.2,0,8,0c3.6-0.1,6.1,1.6,7.4,4.9C16.9,9.1,18.2,13.4,19.7,18L19.7,18z"/>
		<path class="st0" d="M33,63c3.2,0,6,2.9,6,6c0,3.2-2.9,6-6,6c-3.2,0-6-2.9-6-6C27,65.8,29.9,63,33,63z"/>
		<path class="st0" d="M69,69.1c-0.1,3.2-2.9,6-6.1,5.9c-3.2-0.1-6-2.9-5.9-6.1c0.1-3.2,2.9-6,6.1-5.9C66.3,63.1,69.1,65.9,69,69.1z
			"/>
	</g>
</g>
</svg>
