<?xml version="1.0" encoding="utf-8"?>
<!-- Generator: Adobe Illustrator 26.5.0, SVG Export Plug-In . SVG Version: 6.00 Build 0)  -->
<svg version="1.1" id="_Слой_2" xmlns="http://www.w3.org/2000/svg" xmlns:xlink="http://www.w3.org/1999/xlink" x="0px"
	 y="0px" viewBox="0 0 512 303" style="enable-background:new 0 0 512 303;" xml:space="preserve">
<style type="text/css">
	.st0{fill:#FFFFFF;}
</style>
<g id="_Слой_1-2">
	<path class="st0" d="M0,126v-8c4-8.7,10.8-11.3,20.1-11.1c28,0.4,56,0.2,84,0.1c7.8,0,13.4-3.8,15.6-10.1
		c3.6-10.4-2.6-18.8-14.3-18.8c-24.5-0.1-49,0-73.5-0.1C21.8,78,15,71.8,15,62.9C15,54,21.9,48,32,48c5.3,0,10.5,0,16,0
		c0-10.6,0-20.4,0-30.2C48,5.7,53.7,0,65.7,0c88,0,175.9,0,263.9,0c1.8,0,3.5,0,5.5,0c0,29.6,0,58.4,0,87.2
		c0,12.1,5.7,17.8,17.6,17.8c36.3,0,72.6,0,108.9,0c25.4,0,43.3,13.8,49.8,38.3c0.1,0.3,0.4,0.5,0.6,0.7v102
		c-4,8.6-10.8,11.8-20.1,11.1c-6.9-0.5-13.9-0.1-20.6-0.1c-11.2,30.4-29.2,45.3-54.9,46c-12,0.3-23.1-2.8-33.1-9.3
		c-13.4-8.7-21.4-21.1-25.1-36.4h-152c-10.9,29.8-28.9,44.9-54.3,45.6c-12,0.4-23.1-2.6-33.2-9C105,285.2,96.8,272.7,93,257
		c-10.1,0-19.9,0.1-29.7,0c-7.8-0.1-13.9-5.2-15.1-12.7c-0.3-1.8-0.2-3.7-0.2-5.5c0-13.8,0-27.6,0-41.8c-9.6,0-18.8-0.4-27.9,0.1
		C10.8,197.6,4,194.6,0,186v-8c4-8.6,10.8-11.2,20.1-11.1c42.6,0.3,85.3,0.1,127.9,0.2c7,0,12.4-2.3,15.5-8.8
		c5-10.4-2.7-21.2-15-21.2c-42.8,0-85.6-0.2-128.4,0.1C10.9,137.2,4,134.7,0,126L0,126z M150,218c-15.4-0.1-27.9,12.1-28,27.2
		c-0.1,15.2,12.2,27.6,27.5,27.7c14.9,0.1,27.4-12.2,27.5-27.2C177.1,230.7,164.9,218.1,150,218L150,218z M387,245.3
		c-0.1,15.2,12.2,27.6,27.5,27.7c14.9,0.1,27.4-12.2,27.5-27.2c0.1-15.1-12.1-27.6-27-27.7C399.7,217.9,387.1,230.1,387,245.3
		L387,245.3z"/>
	<path class="st0" d="M365.4,3.4c41.1,7.9,63,37.4,81.8,71.2h-81.8L365.4,3.4L365.4,3.4z"/>
</g>
</svg>
